<svg width="42" height="42" viewBox="0 0 42 42" fill="none" xmlns="http://www.w3.org/2000/svg">
<path d="M7.1635 42H34.8592C39.6272 42 42 39.6274 42 34.9278V7.07223C42 2.37263 39.6272 0 34.8592 0H7.1635C2.41827 0 0 2.34975 0 7.07223V34.9278C0 39.6503 2.41827 42 7.1635 42ZM16.8137 32.829C16.0836 32.0988 16.1064 30.9126 16.8137 30.2738L26.6691 20.9886L16.8137 11.749C16.0608 11.0647 16.1292 9.8783 16.8365 9.17113C17.5208 8.48665 18.6388 8.5323 19.3916 9.23956L29.3611 18.6388C30.7071 19.8936 30.7071 22.1064 29.3611 23.3612L19.3916 32.7604C18.7071 33.3765 17.4524 33.4677 16.8137 32.829Z" fill="black"/>
</svg>
