<svg width="18" height="14" viewBox="0 0 18 14" fill="none" xmlns="http://www.w3.org/2000/svg">
<path d="M16.5583 5.58333L11.5583 0.583297C11.4417 0.46663 11.2833 0.399963 11.1167 0.399963H1.5C1.15833 0.399963 0.875 0.683297 0.875 1.02496V7.59166C0.875 7.75833 0.941667 7.91666 1.05833 8.03333L6.05833 13.025C6.425 13.3917 6.90833 13.5917 7.425 13.5917C7.94167 13.5917 8.43333 13.3917 8.79167 13.025L8.975 12.8417C9.00833 12.9083 9.04167 12.975 9.1 13.025C9.475 13.4 9.975 13.5917 10.4667 13.5917C10.9583 13.5917 11.4583 13.4 11.8417 13.025L16.55 8.31666C17.3 7.56666 17.3 6.34166 16.55 5.58333H16.5583ZM7.91667 12.1417C7.78333 12.275 7.61667 12.3417 7.43333 12.3417C7.25 12.3417 7.075 12.2667 6.95 12.1417L2.125 7.33333V1.64996H7.80833L12.625 6.46666C12.8917 6.73333 12.8917 7.16666 12.625 7.43333L7.91667 12.1417ZM15.675 7.43333L10.9667 12.1417C10.7 12.4083 10.2583 12.4083 9.99167 12.1417C9.93333 12.0833 9.875 12.05 9.8 12.0167L13.5 8.31666C14.25 7.55833 14.25 6.33333 13.5 5.58333L9.56667 1.64996H10.85L15.6667 6.46666C15.9333 6.73333 15.9333 7.16666 15.6667 7.43333H15.675ZM5.875 4.0833C5.875 4.6583 5.40833 5.12496 4.83333 5.12496C4.25833 5.12496 3.79167 4.6583 3.79167 4.0833C3.79167 3.5083 4.25833 3.04163 4.83333 3.04163C5.40833 3.04163 5.875 3.5083 5.875 4.0833Z" fill="white"/>
</svg>
