<svg width="16" height="16" viewBox="0 0 16 16" fill="none" xmlns="http://www.w3.org/2000/svg">
<path fill-rule="evenodd" clip-rule="evenodd" d="M5.33331 0.833344C2.84803 0.833344 0.833313 2.84806 0.833313 5.33334V10.6667C0.833313 13.1519 2.84803 15.1667 5.33331 15.1667H10.6666C13.1519 15.1667 15.1666 13.1519 15.1666 10.6667V5.33334C15.1666 2.84806 13.1519 0.833344 10.6666 0.833344H5.33331ZM11.0202 6.68688C11.2154 6.49162 11.2154 6.17504 11.0202 5.97978C10.8249 5.78452 10.5084 5.78452 10.3131 5.97978L7.22891 9.06394C7.16385 9.12901 7.05831 9.12901 6.99325 9.06394L5.68687 7.75754C5.49161 7.56228 5.17502 7.56228 4.97976 7.75754C4.7845 7.95281 4.7845 8.26941 4.97976 8.46468L6.28613 9.77101C6.74171 10.2267 7.48045 10.2267 7.93605 9.77101L11.0202 6.68688Z" fill="white"/>
</svg>
