<svg width="11" height="11" viewBox="0 0 11 11" fill="none" xmlns="http://www.w3.org/2000/svg">
<path fill-rule="evenodd" clip-rule="evenodd" d="M4.27778 1.22222C2.59025 1.22222 1.22222 2.59025 1.22222 4.27778C1.22222 5.96531 2.59025 7.33334 4.27778 7.33334C5.12173 7.33334 5.88476 6.99204 6.43837 6.43837C6.99204 5.88476 7.33334 5.12173 7.33334 4.27778C7.33334 2.59025 5.96531 1.22222 4.27778 1.22222ZM0 4.27778C0 1.91523 1.91523 0 4.27778 0C6.64034 0 8.55557 1.91523 8.55557 4.27778C8.55557 5.23839 8.2384 6.12572 7.70386 6.83963L10.821 9.95679C11.0597 10.1954 11.0597 10.5824 10.821 10.821C10.5824 11.0597 10.1954 11.0597 9.95679 10.821L6.83963 7.70386C6.12572 8.2384 5.23839 8.55557 4.27778 8.55557C1.91523 8.55557 0 6.64034 0 4.27778Z" fill="#858585"/>
</svg>
