<?xml version="1.0" standalone="no"?>
<!DOCTYPE svg PUBLIC "-//W3C//DTD SVG 20010904//EN"
 "http://www.w3.org/TR/2001/REC-SVG-20010904/DTD/svg10.dtd">
<svg version="1.0" xmlns="http://www.w3.org/2000/svg"
 width="700.000000pt" height="700.000000pt" viewBox="0 0 700.000000 700.000000"
 preserveAspectRatio="xMidYMid meet">
<metadata>
Created by potrace 1.14, written by Peter Selinger 2001-2017
</metadata>
<g transform="translate(0.000000,700.000000) scale(0.100000,-0.100000)"
fill="#000000" stroke="none">
<path d="M1000 6993 c-168 -18 -335 -62 -456 -120 -141 -66 -285 -192 -366
-319 -51 -80 -116 -236 -133 -323 -43 -207 -40 -36 -40 -2696 0 -1375 3 -2531
7 -2570 19 -181 63 -328 141 -475 38 -72 77 -121 151 -195 157 -156 378 -251
661 -283 33 -4 1185 -7 2560 -7 2312 0 2507 1 2590 17 137 26 138 26 232 59
321 112 519 336 608 687 44 175 44 133 43 2727 0 1571 -3 2493 -10 2550 -21
193 -90 397 -179 529 -144 214 -391 359 -684 401 -27 4 -59 10 -70 14 -21 6
-4997 10 -5055 4z m2135 -1470 c51 -22 72 -39 235 -193 75 -70 156 -147 180
-170 25 -23 101 -95 170 -160 69 -65 143 -135 166 -157 22 -21 103 -97 180
-169 76 -72 155 -146 174 -164 19 -18 100 -94 180 -169 80 -76 181 -171 225
-212 219 -204 323 -315 353 -375 82 -163 82 -345 1 -507 -38 -76 -97 -135
-589 -597 -133 -125 -205 -193 -280 -264 -120 -114 -375 -355 -408 -384 -15
-14 -92 -87 -172 -162 -80 -76 -161 -152 -180 -170 -19 -18 -63 -58 -96 -91
-91 -87 -174 -123 -282 -122 -70 1 -129 23 -177 65 -82 72 -116 183 -92 297
15 72 24 82 244 290 43 41 141 133 218 206 77 73 156 147 175 165 19 18 96 90
170 160 74 70 151 142 170 160 19 18 96 90 170 160 74 70 151 142 170 160 19
18 100 94 180 170 80 76 163 154 185 174 l40 37 -70 66 c-39 36 -109 102 -156
147 -47 44 -142 133 -210 196 -68 63 -140 131 -160 150 -20 19 -92 87 -159
150 -68 63 -142 132 -164 153 -23 21 -70 66 -106 100 -36 33 -132 124 -215
201 -82 78 -184 172 -225 211 -188 175 -235 228 -252 282 -28 92 -11 195 48
276 83 114 222 149 359 90z"/>
</g>
</svg>
