<svg width="14" height="14" viewBox="0 0 14 14" fill="none" xmlns="http://www.w3.org/2000/svg">
<path d="M8.95652 7.78165C9.24359 7.89639 9.38779 8.22679 9.21579 8.48365C9.01959 8.77665 8.76619 9.02945 8.46879 9.22572C8.01466 9.52539 7.47972 9.67899 6.93579 9.66585C6.39186 9.65279 5.86499 9.47359 5.42579 9.15245C5.13816 8.94205 4.89719 8.67739 4.71532 8.37525C4.55588 8.11039 4.71583 7.78732 5.0081 7.68659C5.30036 7.58585 5.61278 7.75159 5.81046 7.98925C5.89112 8.08625 5.98372 8.17352 6.08666 8.24879C6.34146 8.43512 6.64719 8.53912 6.96272 8.54672C7.27832 8.55432 7.58866 8.46519 7.85212 8.29132C7.95859 8.22105 8.05532 8.13839 8.14052 8.04539C8.34939 7.81745 8.66946 7.66699 8.95652 7.78165Z" fill="white"/>
<path d="M9 5V5.66667M5 5V5.66667M3.66667 13H10.3333C11.8061 13 13 11.8061 13 10.3333V3.66667C13 2.19391 11.8061 1 10.3333 1H3.66667C2.19391 1 1 2.19391 1 3.66667V10.3333C1 11.8061 2.19391 13 3.66667 13Z" stroke="white" stroke-width="1.5" stroke-linecap="round"/>
</svg>
